<?xml version="1.0" encoding="UTF-8"?>
<svg version="1.1" xmlns="http://www.w3.org/2000/svg" width="64" height="64">
<path d="M0 0 C0.8971875 0.309375 0.8971875 0.309375 1.8125 0.625 C1.31577987 7.88981677 -0.01740116 14.64261263 -1.91015625 21.6640625 C-2.17509384 22.67093109 -2.44003143 23.67779968 -2.71299744 24.71517944 C-3.55154136 27.89538798 -4.40057735 31.07268189 -5.25 34.25 C-5.82426674 36.42038808 -6.39784116 38.59095947 -6.97070312 40.76171875 C-8.36830853 46.05162388 -9.77451286 51.33918396 -11.1875 56.625 C-15.0625 55.75 -15.0625 55.75 -16.1875 54.625 C-16.0281832 47.73621595 -14.55433111 40.99869659 -13.0078125 34.3125 C-12.79438202 33.37696289 -12.58095154 32.44142578 -12.36105347 31.47753906 C-11.91209719 29.52057009 -11.4598398 27.5643557 -11.00439453 25.60888672 C-10.30856657 22.60803658 -9.63247303 19.60315207 -8.95703125 16.59765625 C-8.5168172 14.68982868 -8.07545243 12.78226619 -7.6328125 10.875 C-7.33263718 9.52668091 -7.33263718 9.52668091 -7.02639771 8.15112305 C-6.82964447 7.32265869 -6.63289124 6.49419434 -6.43017578 5.640625 C-6.2622049 4.91133789 -6.09423401 4.18205078 -5.9211731 3.43066406 C-4.73111914 0.50178786 -3.10525773 -0.5323299 0 0 Z " fill="#2DADFC" transform="translate(40.1875,4.375)"/>
<path d="M0 0 C1.32 0.66 2.64 1.32 4 2 C3.11647218 6.31452179 0.87375996 9.29967982 -1.75 12.75 C-2.18054687 13.35199219 -2.61109375 13.95398438 -3.0546875 14.57421875 C-6.3373171 18.90846921 -6.3373171 18.90846921 -9.828125 19.390625 C-10.54484375 19.26171875 -11.2615625 19.1328125 -12 19 C-11.55458665 14.0633354 -9.01367291 10.97523457 -6 7.25 C-5.30390625 6.36634766 -5.30390625 6.36634766 -4.59375 5.46484375 C-1.30082418 1.30082418 -1.30082418 1.30082418 0 0 Z " fill="#184EC7" transform="translate(16,14)"/>
<path d="M0 0 C3.93205574 1.58935898 6.36388236 4.12838408 9.25 7.1875 C10.14203125 8.10917969 11.0340625 9.03085937 11.953125 9.98046875 C14.41239815 13.60836597 14.40649194 15.70509175 14 20 C9.59910711 18.00828569 6.93295402 15.12069662 3.6875 11.625 C2.84348633 10.75875 2.84348633 10.75875 1.98242188 9.875 C0.38671875 8.1640625 0.38671875 8.1640625 -2 5 C-1.71440169 2.88497641 -1.52820043 1.52820043 0 0 Z " fill="#184DC6" transform="translate(47,15)"/>
<path d="M0 0 C1.32 0.33 2.64 0.66 4 1 C4.79296875 2.671875 4.79296875 2.671875 5 5 C3.05078125 7.578125 3.05078125 7.578125 0.3125 10.25 C-0.57824219 11.14203125 -1.46898437 12.0340625 -2.38671875 12.953125 C-5 15 -5 15 -9 15 C-9.45842179 11.46633206 -9.18346888 10.2493575 -7.03125 7.32421875 C-6.1959375 6.45410156 -5.360625 5.58398438 -4.5 4.6875 C-3.6646875 3.80449219 -2.829375 2.92148437 -1.96875 2.01171875 C-1.3190625 1.34785156 -0.669375 0.68398438 0 0 Z " fill="#174DC6" transform="translate(54,34)"/>
<path d="M0 0 C3.9448937 3.19711888 6.80107138 6.40857105 7.4375 11.5 C7.2209375 12.7375 7.2209375 12.7375 7 14 C2.74689068 13.50314143 0.67968742 11.08038643 -2.25 8.125 C-3.14203125 7.24070312 -4.0340625 6.35640625 -4.953125 5.4453125 C-7 3 -7 3 -7 0 C-4.2432364 -1.3783818 -2.91793967 -0.88541368 0 0 Z " fill="#184EC7" transform="translate(13,35)"/>
</svg>
